<?xml version="1.0" standalone="no"?>
<!DOCTYPE svg PUBLIC "-//W3C//DTD SVG 20010904//EN"
 "http://www.w3.org/TR/2001/REC-SVG-20010904/DTD/svg10.dtd">
<svg version="1.0" xmlns="http://www.w3.org/2000/svg"
 width="591.000000pt" height="562.000000pt" viewBox="0 0 591.000000 562.000000"
 preserveAspectRatio="xMidYMid meet">
<metadata>
Created by potrace 1.16, written by Peter Selinger 2001-2019
</metadata>
<g transform="translate(0.000000,562.000000) scale(0.100000,-0.100000)"
fill="#000000" stroke="none">
<path d="M2745 5540 c-310 -21 -652 -96 -908 -200 -137 -56 -363 -167 -465
-229 -183 -110 -445 -321 -573 -462 -256 -282 -393 -492 -537 -819 -245 -559
-272 -1253 -73 -1841 237 -699 751 -1275 1431 -1602 310 -150 569 -226 938
-278 195 -27 538 -30 727 -5 274 36 534 101 748 186 659 262 1179 725 1484
1320 153 298 222 513 274 857 28 181 30 503 5 673 -48 324 -121 564 -254 830
-207 418 -458 715 -857 1015 -172 128 -402 252 -670 360 -363 146 -860 222
-1270 195z m555 -195 c124 -17 290 -49 355 -67 22 -7 42 -12 45 -12 51 -8 298
-101 442 -166 486 -222 933 -632 1173 -1075 21 -38 41 -74 45 -80 4 -5 32 -64
62 -130 93 -203 151 -405 194 -670 27 -165 25 -515 -4 -690 -36 -220 -101
-446 -175 -610 -197 -439 -451 -752 -862 -1062 -154 -116 -402 -248 -640 -341
-173 -68 -392 -122 -645 -158 -171 -25 -546 -25 -712 -1 -120 18 -326 58 -388
76 -19 5 -62 17 -94 26 -150 42 -439 171 -615 274 -178 106 -429 307 -556 447
-190 209 -258 301 -370 499 -156 274 -239 515 -296 852 -27 156 -32 511 -10
658 31 213 107 503 161 620 16 33 42 89 58 125 85 182 204 372 317 505 183
216 287 313 510 482 205 154 547 322 824 404 171 50 435 98 626 113 104 8 444
-4 555 -19z"/>
<path d="M2795 4586 c-134 -44 -228 -134 -266 -257 -42 -135 -16 -209 75 -209
56 0 80 27 90 101 9 63 24 95 67 137 32 31 104 62 143 62 72 0 158 -57 191
-126 35 -74 14 -185 -47 -241 -28 -27 -89 -53 -121 -53 -44 0 -87 -22 -102
-51 -11 -20 -15 -64 -16 -156 l0 -128 -147 -86 c-389 -227 -1802 -1065 -1837
-1089 -77 -53 -162 -150 -201 -229 -32 -64 -38 -88 -42 -157 -6 -113 14 -172
83 -240 89 -89 23 -84 1094 -84 l936 0 -92 90 -93 90 -825 0 c-904 0 -878 -2
-909 59 -9 16 -16 45 -16 63 0 73 83 195 175 258 22 15 202 123 400 240 198
117 468 277 600 355 783 464 960 568 970 568 5 0 204 -114 440 -253 464 -274
983 -578 1324 -779 246 -144 319 -203 363 -296 32 -68 35 -112 12 -156 -31
-61 15 -59 -1116 -59 l-1033 0 -277 278 c-169 169 -284 293 -297 318 -65 132
-13 293 119 368 49 28 64 31 135 31 103 0 134 -17 248 -130 l88 -87 78 80 c95
97 151 131 224 139 120 12 228 -45 282 -152 39 -76 41 -175 6 -245 -15 -29
-106 -128 -254 -277 l-232 -233 130 0 131 0 175 177 c186 188 218 232 243 328
53 201 -25 405 -196 516 -82 52 -164 72 -280 67 -104 -4 -170 -28 -259 -94
l-49 -36 -49 36 c-94 69 -154 90 -271 94 -87 3 -115 0 -164 -17 -154 -54 -271
-181 -305 -332 -25 -106 -5 -250 46 -339 14 -25 159 -179 322 -343 222 -223
306 -301 336 -312 35 -14 173 -15 1125 -13 l1085 3 49 25 c109 56 162 156 154
294 -8 128 -75 248 -192 346 -48 40 -471 291 -1703 1014 l-342 201 -1 83 c0
67 3 82 15 82 29 0 118 52 165 96 62 58 109 159 117 251 13 164 -75 315 -227
387 -55 26 -79 31 -150 33 -50 2 -102 -3 -125 -11z"/>
</g>
</svg>
